<svg version="1.1" id="Layer_1" xmlns="http://www.w3.org/2000/svg" xmlns:xlink="http://www.w3.org/1999/xlink" x="0px" y="0px" width="200px" height="200px" viewBox="-3.3620233050847474 -3.3756951800847474 206.7513903601695 206.7513903601695" style="stroke-width: 2px;" xml:space="preserve" preserveAspectRatio="xMidYMid meet">
<style type="text/css">
	.st0{fill:#010101;}
</style>
<path d="M200,69C200,68.9,200,68.9,200,69c-0.2-35.7-28.2-63.6-63.9-63.6h-27.9c-2.4,0-4.3,1.9-4.3,4.3V65H37.6
	c-0.2-0.4-0.4-0.8-0.8-1.2L7.3,34.3c-1.7-1.7-4.4-1.7-6,0c-1.7,1.7-1.7,4.4,0,6l28.4,28.4c0,0.2-0.1,0.3-0.1,0.5
	c0,35.8,28.1,63.9,63.9,63.9h42.6c35.3,0,62.4-59.6,63.5-62.2c0,0,0,0,0,0c0,0,0-0.1,0-0.2c0.2-0.4,0.3-0.9,0.3-1.4
	c0-0.1,0-0.1,0-0.2C200,69.1,200,69.1,200,69z M136.1,124.6H93.5c-29.6,0-53.1-22.1-55.2-51.1h70h80.7
	C181.3,88.2,160,124.6,136.1,124.6z M112.5,65V13.9h23.6c29.6,0,53.1,22.1,55.2,51.1H112.5z M71.5,135c-16.4,0-29.8,13.4-29.8,29.8
	s13.4,29.8,29.8,29.8c16.5,0,29.8-13.4,29.8-29.8S87.9,135,71.5,135z M71.5,186.1c-11.7,0-21.3-9.6-21.3-21.3s9.6-21.3,21.3-21.3
	c11.8,0,21.3,9.6,21.3,21.3S83.2,186.1,71.5,186.1z M165.2,135c-16.4,0-29.8,13.4-29.8,29.8s13.4,29.8,29.8,29.8
	s29.8-13.4,29.8-29.8S181.6,135,165.2,135z M165.2,186.1c-11.7,0-21.3-9.6-21.3-21.3s9.6-21.3,21.3-21.3s21.3,9.6,21.3,21.3
	S176.9,186.1,165.2,186.1z"></path>
</svg>