<svg version="1.1" xmlns="http://www.w3.org/2000/svg" viewBox="18.65625 62.8828125 168.84375 68.7265625" style="stroke-width: 0px;" preserveAspectRatio="xMidYMid meet"><g><path d="M124.207,110.189h61.938c-1.492-4.826-4.198-8.549-8.249-10.732c-6.088-3.278-22.901-11.297-39.937-19.121L124.207,110.189
		z"></path><path d="M126.633,75.189l-16.632,34.999h6.339l15.118-32.817C129.842,76.633,128.224,75.907,126.633,75.189z"></path><path d="M87.792,110.189l20.111-43.228c-3.731-1.583-7.002-2.928-9.428-3.85c-1.367-0.508-2.908-0.146-3.898,0.928
		C89.005,70.127,74.835,76.64,62.645,76.64c-4.505,0-10.683-0.928-14.498-5.377c-3.821-4.449-9.198-7.099-14.386-7.099
		c-6.967,0-15.104,4.965-15.104,18.954v27.071H87.792z"></path><path d="M114.458,69.785l-18.787,40.404h6.415l18.02-37.915C118.168,71.41,116.285,70.579,114.458,69.785z"></path><path d="M18.657,117.329v10.711c0,1.974,1.604,3.57,3.57,3.57h152.174c3.487,0,6.897-1.43,9.344-3.926
		c2.454-2.489,3.815-5.928,3.752-9.421c-0.014-0.335-0.098-0.607-0.111-0.935H18.657z"></path></g></svg>