<svg version="1.1" xmlns="http://www.w3.org/2000/svg" viewBox="16.8984375 13.75390625 167.203125 167.2109375" style="stroke-width: 0px;" preserveAspectRatio="xMidYMid meet"><g><path d="M164.172,59.047V18.971c0-1.926-1.558-3.483-3.483-3.483h-27.868c-1.925,0-3.483,1.558-3.483,3.483v10.5L164.172,59.047z"></path><path d="M182.92,84.292l-18.916-16.634l0,0l-42.46-36.839l-18.69-16.213c-1.313-1.14-3.256-1.13-4.568,0.003l-80.188,69.67
		c-1.099,0.957-1.49,2.494-0.98,3.848c0.51,1.364,1.809,2.266,3.262,2.266h10.593v87.087c0,1.926,1.558,3.484,3.483,3.484h48.769
		c1.926,0,3.484-1.558,3.484-3.484v-45.285h27.868v45.285c0,1.926,1.558,3.484,3.483,3.484h48.769c1.926,0,3.484-1.558,3.484-3.484
		V90.392h10.307c1.449,0,2.746-0.891,3.259-2.252C184.389,86.786,184.009,85.255,182.92,84.292z"></path></g></svg>