<svg viewBox="9.456896551724142 9.456896551724142 182.08620689655172 182.08620689655172" xmlns="http://www.w3.org/2000/svg" version="1.1" style="stroke-width: 1px;" preserveAspectRatio="xMidYMid meet"><g><path d="M85.583,70.667v115.604c0,2.061,1.675,3.729,3.729,3.729h22.375c2.069,0,3.729-1.668,3.729-3.729V70.667H85.583z"></path><path d="M152.369,33.375h-7.458c-10.277,0-18.646-8.362-18.646-18.646c0-2.061-1.66-3.729-3.729-3.729H48.631
		c-2.054,0-3.729,1.668-3.729,3.729v44.75c0,2.061,1.675,3.729,3.729,3.729h3.729h33.223h40.682h14.917h11.188
		c2.069,0,3.729-1.668,3.729-3.729V37.104C156.098,35.043,154.438,33.375,152.369,33.375z"></path></g></svg>