<svg version="1.1" xmlns="http://www.w3.org/2000/svg" viewBox="34.034327651515156 46.942530776515156 289.0485321969697 289.0485321969697" style="stroke-width: 1px;" preserveAspectRatio="xMidYMid meet">
<g>
<path d="M320.253,186.435c0,0,5.5,15.5-15,32l-62.5,58c0,0-16.5,13.5-0.5,47c0,0,4.5,8.5-0.5,8.5h-46.89v-44.5v-28c0,0-1.8-19.5,16.2-27.5c0,0,26.6-12,36.6-36.5c0,0,12.21-28,20.63-23.5c0,0,10.1,1.5,0.02,19c0,0-15.07,25.5-8.07,26c0,0,7.01,14,31.01-14c0,0,12.5-13.5,5-26.5c0,0-19.5-44.5-5-52c0,0,9-5.5,16,18.5L320.253,186.435z"></path>
<path d="M177.073,68.215c4.02-3,49.49-35.71,76.78-2.28c28.58,35-5.07,70.5-5.07,70.5l-71.71,69.22l-71.71-69.22c0,0-33.65-35.5-5.07-70.5C127.583,32.505,173.053,65.215,177.073,68.215z"></path>
<path d="M145.863,231.935c18,8,16,27.5,16,27.5v28v44.5h-46.5c-5,0-0.5-8.5-0.5-8.5c16-33.5-0.5-47-0.5-47l-62.5-58c-20.5-16.5-15-32-15-32l13-43.5c7-24,16-18.5,16-18.5c14.5,7.5-5,52-5,52c-7.5,13,5,26.5,5,26.5c24,28,31,14,31,14c7-0.5-8.08-26-8.08-26c-10.08-17.5,0-19,0-19c8.42-4.5,20.58,23.5,20.58,23.5C119.363,219.935,145.863,231.935,145.863,231.935z"></path>
</g>
</svg>