<svg version="1.1" xmlns="http://www.w3.org/2000/svg" viewBox="15.858909970238102 13.470238095238102 169.0595238095238 169.0595238095238" style="stroke-width: 1px;" preserveAspectRatio="xMidYMid meet"><g><path d="M180.128,136.137h-10.401V52.929c0-7.651-6.222-13.868-13.868-13.868H44.916c-7.651,0-13.868,6.216-13.868,13.868v83.208
		H20.648c-1.917,0-3.467,1.551-3.467,3.467v3.467c0,7.645,6.216,13.868,13.868,13.868h138.679c7.645,0,13.868-6.223,13.868-13.868
		v-3.467C183.595,137.688,182.045,136.137,180.128,136.137z M155.859,125.735c0,1.917-1.55,3.467-3.467,3.467H48.383
		c-1.916,0-3.467-1.55-3.467-3.467V56.396c0-1.916,1.551-3.467,3.467-3.467h104.009c1.917,0,3.467,1.552,3.467,3.467V125.735z"></path><rect x="50.203" y="57.77" width="99.842" height="66.494"></rect></g></svg>